<?xml version="1.0" encoding="iso-8859-1"?>
<!-- Uploaded to: SVG Repo, www.svgrepo.com, Generator: SVG Repo Mixer Tools -->
<svg fill="#000000" height="800px" width="800px" version="1.1" id="Layer_1" xmlns="http://www.w3.org/2000/svg" xmlns:xlink="http://www.w3.org/1999/xlink" 
	 viewBox="0 0 512.001 512.001" xml:space="preserve">
<g>
	<g>
		<path d="M219.693,6.023h-44.05C78.794,6.023,0,84.815,0,181.666c0,36.128,29.392,65.52,65.52,65.52h74.554
			C124,316.761,113.912,399.519,113.912,422.221c0,46.183,37.573,83.755,83.756,83.755c46.183,0,83.756-37.573,83.756-83.755
			c0-22.703-10.088-105.462-26.163-175.035h74.556c36.129,0,65.52-29.392,65.52-65.52C395.337,84.817,316.543,6.023,219.693,6.023z
			 M260.508,422.222c0,34.65-28.19,62.838-62.839,62.838c-34.65,0-62.839-28.19-62.839-62.838
			c0-22.388,10.342-106.042,26.724-175.035h72.229C250.165,316.178,260.508,399.833,260.508,422.222z M329.817,226.269H65.52
			c-24.594,0-44.603-20.009-44.603-44.603c0-85.316,69.41-154.727,154.727-154.727h44.05c85.316,0,154.727,69.41,154.727,154.727
			C374.42,206.261,354.411,226.269,329.817,226.269z"/>
	</g>
</g>
<g>
	<g>
		<path d="M212.332,55.626h-0.244c-5.775,0-10.458,4.682-10.458,10.458c0,5.776,4.683,10.458,10.458,10.458h0.244
			c5.775,0,10.458-4.682,10.458-10.458C222.79,60.308,218.107,55.626,212.332,55.626z"/>
	</g>
</g>
<g>
	<g>
		<path d="M176.762,55.775c-64.035,3.06-114.193,52.467-114.193,112.48c0,5.776,4.683,10.458,10.458,10.458
			s10.458-4.682,10.458-10.458c0-48.831,41.411-89.061,94.276-91.587c5.769-0.275,10.222-5.176,9.946-10.946
			C187.432,59.953,182.559,55.507,176.762,55.775z"/>
	</g>
</g>
<g>
	<g>
		<path d="M168.801,334.412c-5.679-1.045-11.131,2.723-12.17,8.404c-5.38,29.398-8.71,58.415-8.71,68.442
			c0,5.776,4.683,10.458,10.458,10.458c5.775,0,10.458-4.682,10.458-10.458c0-7.944,2.907-34.84,8.369-64.676
			C178.247,340.901,174.483,335.452,168.801,334.412z"/>
	</g>
</g>
<g>
	<g>
		<path d="M176.598,301.723c-5.575-1.488-11.311,1.829-12.799,7.41c-0.042,0.157-0.098,0.384-0.132,0.543
			c-1.229,5.645,2.352,11.216,7.998,12.442c0.749,0.162,1.496,0.241,2.232,0.241c4.724,0,8.985-3.22,10.147-7.968
			C185.445,308.851,182.136,303.199,176.598,301.723z"/>
	</g>
</g>
<g>
	<g>
		<path d="M427.249,269.617h-19.81c-46.731,0-84.749,38.018-84.749,84.75c0,19.421,15.799,35.222,35.222,35.222h26.352
			c-6.483,30.292-10.343,63.021-10.343,72.966c0,23.943,19.48,43.423,43.424,43.423c23.943,0,43.423-19.48,43.423-43.423
			c0-9.947-3.859-42.678-10.343-72.966h26.353c19.421,0,35.223-15.801,35.223-35.222C512,307.636,473.981,269.617,427.249,269.617z
			 M417.344,485.06c-12.411,0-22.508-10.097-22.508-22.506c0-8.345,4.052-42.752,10.841-72.966h23.331
			c6.791,30.211,10.842,64.619,10.842,72.966C439.851,474.964,429.755,485.06,417.344,485.06z M476.777,368.671H357.912
			c-7.888,0-14.305-6.417-14.305-14.305c0-35.198,28.635-63.833,63.832-63.833h19.81c35.198,0,63.833,28.635,63.833,63.833
			C491.083,362.255,484.666,368.671,476.777,368.671z"/>
	</g>
</g>
<g>
	<g>
		<path d="M405.033,301.382c-26.496,1.266-47.253,21.89-47.253,46.953c0,5.776,4.683,10.458,10.458,10.458
			c5.775,0,10.458-4.682,10.458-10.458c0-13.88,12.006-25.327,27.335-26.059c5.77-0.276,10.222-5.177,9.947-10.946
			C415.703,305.561,410.819,301.101,405.033,301.382z"/>
	</g>
</g>
</svg>